# xmcd
#
# Track frame offsets: 
#        150
#        16600
#        29631
#        43203
#        60233
#        82839
#
# Disc length: 1252 seconds
#
# Revision: 0
# Processed by: cddbd v1.5.2PL0 Copyright (c) Steve Scherf et al.
# Submitted via: ExactAudioCopyFreeDBPlugin 1.0
#
DISCID=3b04e206
DTITLE=The Damned And Dirty - Revelation
DYEAR=2018
DGENRE=Blues
TTITLE0=High And Fine
TTITLE1=Been A Liar
TTITLE2=Ain't That Something
TTITLE3=Head Down In The Darkness
TTITLE4=Revelation
TTITLE5=I Know It's Right
EXTD=
EXTT0=
EXTT1=
EXTT2=
EXTT3=
EXTT4=
EXTT5=
PLAYORDER=
